<?xml version="1.0" encoding="UTF-8"?>
<svg id="Calque_1" data-name="Calque 1" xmlns="http://www.w3.org/2000/svg" viewBox="0 0 614.7 285.04">
  <defs>
    <style>
      .cls-1 {
        fill: #1d1d1b;
      }
    </style>
  </defs>
  <text/>
  <g>
    <path class="cls-1" d="M446.01,158.93l-76.27,82.72,8.11-217.67c.2-5.37-3.99-9.88-9.35-10.08-5.33-.19-9.88,3.99-10.08,9.35l-9.1,243.98c-.15,4.07,2.25,7.8,6.01,9.35,1.2.49,2.46.73,3.7.73,2.66,0,5.27-1.09,7.15-3.13l94.12-102.08c3.64-3.95,3.39-10.1-.56-13.74-3.95-3.64-10.1-3.39-13.74.56Z"/>
    <path class="cls-1" d="M574.29,35.82c-15.15-12.76-30.22-20.94-30.86-21.29-.08-.04-.16-.08-.24-.12-.16-.08-.31-.16-.48-.23-.16-.07-.33-.14-.49-.2-.08-.03-.16-.07-.25-.1-.05-.02-.1-.03-.15-.04-.19-.06-.38-.11-.57-.16-.12-.03-.25-.07-.37-.09-.19-.04-.38-.07-.57-.1-.13-.02-.26-.04-.39-.06-.18-.02-.36-.03-.54-.04-.14,0-.28-.02-.42-.02-.17,0-.34,0-.51.01-.15,0-.29.01-.44.02-.17.01-.33.04-.5.06-.14.02-.28.04-.42.06-.17.03-.35.07-.52.11-.13.03-.25.06-.38.09-.19.05-.37.11-.55.18-.11.04-.22.07-.32.11-.19.08-.38.16-.57.25-.09.04-.18.08-.27.12-.2.1-.39.21-.58.32-.08.05-.16.09-.23.14-.19.12-.37.24-.55.37-.08.06-.15.11-.23.17-.16.13-.32.26-.48.4-.08.07-.17.15-.25.22-.14.13-.27.26-.4.4-.09.1-.19.2-.28.3-.11.12-.21.25-.31.38-.1.13-.2.26-.3.4-.08.12-.16.24-.24.36-.1.16-.2.31-.29.48-.03.05-.06.09-.09.14-.04.08-.08.17-.12.25-.08.15-.15.31-.22.47-.07.17-.14.33-.2.5-.03.08-.07.16-.1.25l-34.1,99.42-30.31-101.21c-1.22-4.09-4.97-6.9-9.24-6.93h-.08c-4.23,0-7.99,2.74-9.27,6.79l-21.09,66.62-27.14-12.35c-4.6-2.09-10.03-.06-12.12,4.54-2.09,4.6-.06,10.03,4.54,12.12l29.15,13.26-8.36,26.41c-1.62,5.12,1.22,10.58,6.33,12.2,5.12,1.62,10.58-1.22,12.2-6.33l7.65-24.17,37.05,16.86c.95.43,1.94.69,2.93.78l7.79,26c.04.13.09.26.13.38.04.1.07.21.11.31.21.56.48,1.09.78,1.59.02.04.05.07.07.1.13.21.27.42.42.62.05.07.1.13.15.2.13.16.26.32.4.48.07.08.13.15.2.22.13.14.27.27.41.4.08.07.15.15.23.22.18.15.36.3.54.44.1.07.19.14.29.21.18.12.36.24.54.36.1.06.2.11.3.17.17.09.34.18.51.27.09.05.19.09.28.13.22.1.45.19.67.27.04.01.08.03.12.05.01,0,.03,0,.04.01.21.07.41.13.62.19.05.01.09.03.14.04.24.06.49.11.74.15.01,0,.02,0,.04,0,.52.08,1.04.13,1.57.13h0c.45,0,.89-.04,1.33-.1.03,0,.06,0,.09-.01.44-.06.87-.16,1.29-.29.03,0,.05-.01.08-.02.02,0,.04-.01.06-.02.28-.09.56-.18.83-.3.08-.03.15-.07.23-.1.19-.08.37-.17.55-.26.11-.06.22-.12.33-.18.15-.08.29-.17.43-.26.1-.07.21-.13.31-.2.19-.13.38-.27.56-.42.08-.06.15-.12.22-.18.18-.15.35-.31.51-.47.06-.06.13-.13.19-.2.14-.15.28-.3.42-.46.05-.06.11-.13.16-.2.14-.18.28-.36.41-.55.04-.05.07-.1.11-.15.32-.48.6-1,.83-1.54.04-.09.07-.17.1-.26.05-.14.11-.27.16-.41l40.02-116.67c17.17,11.25,43.24,32.48,42.8,51.68-.28,11.93-11.16,23.14-32.34,33.33-4.37,2.1-6.53,7.11-5.04,11.73,4.09,12.75,12.34,52.14-2.87,65.39-10.53,9.17-33.99,5.73-66.06-9.7-4.84-2.33-10.65-.29-12.98,4.55-2.33,4.84-.29,10.65,4.55,12.98,23.29,11.2,42.52,16.79,58.01,16.78,11.93,0,21.64-3.32,29.25-9.95,22.44-19.54,15.33-60.27,10.87-78.01,23.52-12.93,35.64-28.6,36.06-46.66.41-17.53-10.38-35.68-32.06-53.94ZM443.37,92.73l12.27-38.76,15.37,51.33-27.64-12.57Z"/>
    <polygon class="cls-1" points="85.52 120.42 39.95 120.42 39.95 93.78 93.06 93.78 93.06 67.31 13.39 67.31 13.39 199.93 39.95 199.93 39.95 146.9 85.52 146.9 85.52 120.42"/>
    <path class="cls-1" d="M144.94,64.36l-63.11,135.4h28.69l8.44-18.44h52.87l8.36,18.44h28.77l-63.19-135.4h-.82ZM129.29,158.7l16.15-35.33,16.06,35.33h-32.21Z"/>
    <polygon class="cls-1" points="301.74 141.32 223.46 65.18 222.15 65.18 222.15 199.93 248.71 199.93 248.71 125.91 327.14 202.22 328.37 202.22 328.37 67.31 301.74 67.31 301.74 141.32"/>
  </g>
</svg>