<?xml version="1.0" encoding="UTF-8"?>
<svg id="Calque_1" data-name="Calque 1" xmlns="http://www.w3.org/2000/svg" viewBox="0 0 362.65 429.33">
  <defs>
    <style>
      .cls-1 {
        fill: #1d1d1b;
      }
    </style>
  </defs>
  <text/>
  <g>
    <polygon class="cls-1" points="94.4 72.92 50.17 72.92 50.17 47.06 101.72 47.06 101.72 21.37 24.4 21.37 24.4 150.08 50.17 150.08 50.17 98.61 94.4 98.61 94.4 72.92"/>
    <polygon class="cls-1" points="252.79 78.25 328.92 152.31 330.11 152.31 330.11 21.37 304.26 21.37 304.26 93.2 228.29 19.3 227.01 19.3 227.01 150.08 252.79 150.08 252.79 78.25"/>
    <path class="cls-1" d="M175.86,295.83c-3.92-3.83-10.21-3.76-14.05.16l-84.93,86.9,8.2-232.46c.19-5.48-4.09-10.08-9.58-10.28-5.51-.19-10.08,4.09-10.28,9.58l-9.1,258.1c-.14,4.1,2.25,7.87,6.02,9.48,1.26.54,2.59.8,3.91.8,2.62,0,5.2-1.04,7.11-2.99l102.86-105.25c3.83-3.92,3.76-10.21-.16-14.05Z"/>
    <path class="cls-1" d="M350.36,227.26c.91-45.82-66.59-82.2-69.46-83.72-.04-.02-.08-.04-.12-.06-.16-.08-.33-.16-.5-.23-.15-.07-.3-.13-.45-.19-.05-.02-.09-.04-.14-.06-.1-.04-.2-.06-.3-.09-.17-.06-.35-.12-.52-.16-.15-.04-.29-.07-.44-.11-.17-.04-.34-.08-.52-.11-.16-.03-.32-.05-.47-.07-.16-.02-.32-.04-.48-.05-.17-.01-.34-.02-.51-.02-.15,0-.3,0-.44,0-.18,0-.35.02-.53.03-.14.01-.28.02-.42.04-.17.02-.35.05-.52.08-.14.03-.28.05-.43.08-.17.04-.33.08-.49.12-.15.04-.3.08-.44.13-.15.05-.3.1-.44.16-.16.06-.31.12-.46.19-.13.06-.26.12-.39.19-.16.08-.31.16-.47.24-.12.07-.24.14-.36.21-.15.09-.31.19-.46.29-.11.08-.23.16-.34.25-.14.11-.28.22-.42.33-.11.1-.22.2-.33.3-.12.11-.25.23-.36.35-.12.12-.23.24-.34.37-.1.11-.2.23-.3.35-.12.15-.23.3-.34.45-.08.11-.16.22-.24.34-.11.17-.21.34-.31.51-.05.08-.1.16-.14.24-.02.04-.04.08-.06.12-.08.16-.16.33-.23.49-.07.15-.14.31-.2.46-.02.05-.04.09-.06.14l-33.61,90.97L169.39,26.38c-1.26-4.21-5.13-7.08-9.51-7.08-.05,0-.1,0-.15,0-4.44.07-8.3,3.08-9.45,7.37l-22.35,83.75-19.49-8.87c-4.7-2.14-10.24-.06-12.38,4.64-2.14,4.7-.06,10.24,4.64,12.38l22.34,10.16-16.23,60.84c-1.41,5.3,1.74,10.74,7.04,12.16,5.31,1.41,10.74-1.74,12.16-7.04l15.38-57.62,45.18,20.55c.51.23,1.04.4,1.56.54l34.69,115.85c.02.08.06.16.08.23.04.12.08.23.12.34.07.19.14.37.22.55.04.09.08.18.12.26.11.23.22.45.34.66.02.04.04.08.07.12.31.53.66,1.01,1.05,1.47.06.07.13.14.19.21.13.15.27.29.41.43.09.08.17.16.26.24.13.12.27.23.41.34.1.08.19.16.29.23.17.13.35.25.52.36.09.06.19.12.28.18.23.14.46.26.69.38.09.04.18.08.27.13.2.09.4.18.61.26.05.02.09.04.14.06.05.02.09.03.14.04.17.06.35.12.53.17.09.03.19.06.28.08.19.05.37.09.56.13.09.02.17.04.26.05.2.04.41.06.62.08.07,0,.14.02.21.03.28.02.55.04.83.04,0,0,0,0,0,0,0,0,0,0,0,0,.01,0,.03,0,.04,0,.47,0,.94-.04,1.41-.11.23-.03.45-.1.67-.15.24-.05.48-.09.72-.16.02,0,.04-.01.06-.02.06-.02.12-.04.18-.06.38-.12.74-.27,1.1-.43.09-.04.18-.08.26-.12.4-.2.79-.42,1.16-.67.02-.01.04-.03.06-.04.35-.24.68-.51.99-.79.07-.07.15-.13.22-.2.31-.3.61-.62.88-.95.06-.07.11-.15.17-.22.23-.31.45-.63.64-.96.04-.08.09-.15.14-.22.22-.4.41-.81.57-1.23.02-.04.04-.08.06-.13l39.8-107.74c19.5,12.4,49.52,36.53,49.05,59.98-.32,15.88-14.94,30.89-43.46,44.6-4.41,2.12-6.61,7.14-5.2,11.82,4.43,14.71,11.93,56.3-6.24,71.83-14.59,12.47-45.36,7.97-89.01-13.02-4.94-2.38-10.88-.3-13.26,4.65-2.38,4.94-.3,10.88,4.65,13.26,30.45,14.64,55.37,21.95,75.16,21.95,14.51,0,26.25-3.92,35.4-11.76,25.31-21.69,18.56-66.13,14.41-84.51,31.03-16.5,46.97-36.13,47.41-58.43ZM146.27,118.77l14.16-53.07,20.63,68.89-34.79-15.83Z"/>
  </g>
</svg>